<?xml version="1.0" encoding="UTF-8"?>
<svg id="Capa_1" data-name="Capa 1" xmlns="http://www.w3.org/2000/svg" version="1.1" viewBox="0 0 500 500">
  <defs>
    <style>
      .cls-1 {
        fill: #222c56;
        stroke-width: 0px;
      }
    </style>
  </defs>
  <path class="cls-1" d="M234.6,383.9c0-16.6,0-32.6,0-48.7,0-9.8-.4-19.6,0-29.3.4-8.1-2.4-14.4-8-19.7-2.5-2.4-3.4-5-3.4-8.3,0-38.8,0-77.5-.1-116.3,0-2.2,0-4.5,0-7.4-2.2,0-3.9,0-5.7,0-34.3,0-68.5,0-102.8,0-2,0-4.6-.8-5.8-2.2-16.1-18.3-50.4-56.1-51.1-57h348.4c-5.7,5.4-9.5,11.1-18.4,11-11.9-.1-24.2.3-35.8,2.9-23.2,5.3-39.1,20.8-50.4,41.2-1.7,3-3.3,4.5-6.9,4.2-4-.3-8,0-12.4,0v170.4c2.5.1,4.7.4,6.9.4,37.9,0,75.7,0,113.6-.1,14.6,0,24.8-7.7,28.2-20.5,3.7-13.9-3.1-28.2-16.2-34.6-2.9-1.4-5.7-3.4-7.7-5.8-14-16.3-27.8-32.7-41.6-49.2-13.6-16.4-16.1-34.8-6.7-50.9,8.2-14,21.2-20.4,37.1-21.1,9.6-.4,19.2-.3,28.8,0,1.6,0,3.6,1.7,4.8,3.1,11.4,14.4,32.1,12.3,39.5-4.2,5.3-11.8-.4-25.7-12.3-30.2-12.2-4.6-26.1,2.1-30.1,14.6-.5,1.7-.9,3.5-1.5,5.8-9,0-18.2,0-27.3,0-14,0-26.7,3.6-37.4,13.1-19.9,17.6-23.9,45.3-9.4,68.2,4.1,6.4,9.2,12.2,14.1,18.1,9,10.9,18.1,21.7,27.1,32.5,1,1.2,1.9,2.5,3.3,4.2-24.9,2.4-46.9-2.1-65.6-18.7-36-32-35-89.6,2.4-118.6,11.1-8.6,23.7-13.3,37.9-13.6,13.1-.2,26.1-.5,39.2-.6,2.8,0,4.2-1,5.6-3.3,9.6-16.2,29.2-23.5,46.3-17.6,17.3,6,28.4,23.6,26.3,41.7-2.2,18.3-17.5,33.3-36,34.6-11.8.9-22.1-3.5-31-11.1-2.6-2.2-5.2-3.3-8.5-3.1-7.2.4-14.5,0-21.6.9-13,1.6-21.7,12.1-22,25.6-.3,13.4,7.2,23.4,20.4,25.7,8.8,1.5,18,1.3,26.8,2.8,39.7,6.6,76.1,42.9,72.8,90.3-2.2,31.8-18.9,54.6-46.4,70.1-13.1,7.4-27.4,10.8-42.3,10.9-54.1.2-108.2.2-162.3.2-.9,0-1.7-.2-3.2-.3Z"/>
  <path class="cls-1" d="M73.7,217.6c0,7.5,0,15,0,22.5,0,21.8.1,43.6,0,65.3,0,3.8,1.2,6.1,4.4,8.4,14.3,9.9,20.1,27.4,14.9,43.7-5.4,16.9-19.6,27.3-37.2,27.3-16.9,0-32-10.6-36.8-26.6-1.4-4.8-2-10-2-15.1,0-58.7.2-117.5.3-176.2,0-2.4,0-4.8,0-8.3,1.7,1.6,2.9,2.6,3.9,3.8,8.1,8.8,16.4,17.6,24.2,26.7,1.5,1.8,2.2,4.8,2.2,7.3.2,41,0,82,.2,123,0,3.5-.7,5.6-4,7.5-8.4,4.9-12,13.8-10.2,23.2,1.7,8.7,8.7,15.9,17.3,17.6,9.6,1.9,18.9-1.8,24-9.6,7.6-11.6,2.8-27.3-10.6-33.2-4.2-1.8-5.2-4.1-5.2-8.3,0-66.4-.2-132.8-.3-199.2,0-1.6,0-3.2,0-5.6,1.3,1.1,108,122.2,160.9,182.3,2.7,3,3.7,6.1,3.7,10.1-.2,25.4-.2,50.8-.2,76.2,0,.9-.2,1.7-.4,4-49.8-56.3-98.8-111.8-147.9-167.3-.4.1-.9.3-1.3.4Z"/>
  <path class="cls-1" d="M47.5,94.8v78.7c-.3,0-.8,0-1-.2-8.8-9.8-17.5-19.8-26.4-29.6-2.7-3-3.1-6.2-2.4-10,2.9-15.7,12.4-26.7,24.8-35.6,1.3-.9,2.7-1.9,4.9-3.4Z"/>
</svg>